<svg width="44" height="44" viewBox="0 0 44 44" fill="none" xmlns="http://www.w3.org/2000/svg">
<rect width="44" height="44" rx="22" fill="white"/>
<g clip-path="url(#clip0_1_123)">
<path d="M14 20.5C13.17 20.5 12.5 21.17 12.5 22C12.5 22.83 13.17 23.5 14 23.5C14.83 23.5 15.5 22.83 15.5 22C15.5 21.17 14.83 20.5 14 20.5ZM14 14.5C13.17 14.5 12.5 15.17 12.5 16C12.5 16.83 13.17 17.5 14 17.5C14.83 17.5 15.5 16.83 15.5 16C15.5 15.17 14.83 14.5 14 14.5ZM14 26.5C13.17 26.5 12.5 27.18 12.5 28C12.5 28.82 13.18 29.5 14 29.5C14.82 29.5 15.5 28.82 15.5 28C15.5 27.18 14.83 26.5 14 26.5ZM17 29H31V27H17V29ZM17 23H31V21H17V23ZM17 15V17H31V15H17Z" fill="#9D9D9D"/>
</g>
<defs>
<clipPath id="clip0_1_123">
<rect width="24" height="24" fill="white" transform="translate(10 10)"/>
</clipPath>
</defs>
</svg>
